<svg width="205" height="91" viewBox="0 0 205 91" fill="none" xmlns="http://www.w3.org/2000/svg">
<path d="M26.36 34.28C25.88 34.28 25.4667 34.0667 25.12 33.64C24.8 33.2133 24.64 32.4667 24.64 31.4C24.64 30.7867 24.76 30.0667 25 29.24C25.5333 27.56 26.08 25.76 26.64 23.84C27.2267 21.92 27.7733 19.96 28.28 17.96C28.8133 15.96 29.24 14.0267 29.56 12.16C29.88 10.2667 30.04 8.53333 30.04 6.96C30.04 6.42666 30.0133 5.90667 29.96 5.4C29.9333 4.89333 29.8667 4.41333 29.76 3.96C27.0667 6.52 24.5733 10 22.28 14.4C20.0133 18.7733 17.9467 23.8667 16.08 29.68C15.76 30.56 15.36 31.1733 14.88 31.52C14.4 31.8667 13.9467 32.04 13.52 32.04C13.1467 32.04 12.7867 31.8933 12.44 31.6C12.0933 31.28 11.92 30.8 11.92 30.16C11.92 29.7333 12.0267 29.1333 12.24 28.36C12.4533 27.56 12.8267 26.8267 13.36 26.16C13.6533 24.4 13.8933 22.5333 14.08 20.56C14.2933 18.5867 14.4 16.76 14.4 15.08C14.4 14.3067 14.36 13.5867 14.28 12.92C14.2267 12.2267 14.1333 11.6267 14 11.12C12.6133 12.5867 11.32 14.4267 10.12 16.64C8.94667 18.8267 7.90667 21.1867 7 23.72C6.09333 26.2267 5.33333 28.68 4.72 31.08C4.24 32.8133 3.46667 33.68 2.4 33.68C1.97333 33.68 1.61333 33.4533 1.32 33C1.05333 32.5467 0.92 31.8667 0.92 30.96C0.92 30.08 1.13333 28.8933 1.56 27.4C1.98667 25.9067 2.56 24.2667 3.28 22.48C4.02667 20.6933 4.85333 18.92 5.76 17.16C6.69333 15.3733 7.65333 13.7467 8.64 12.28C9.65333 10.7867 10.64 9.58667 11.6 8.68C12.56 7.77333 13.4267 7.32 14.2 7.32C14.7067 7.32 15.16 7.41333 15.56 7.6C15.96 7.78666 16.3067 8.17333 16.6 8.76C16.8933 9.32 17.1067 10.1867 17.24 11.36C17.4 12.5067 17.48 14.04 17.48 15.96C17.48 16.3067 17.48 16.7067 17.48 17.16C18.2533 15.0267 19.1467 12.96 20.16 10.96C21.2 8.93333 22.2933 7.12 23.44 5.52C24.5867 3.92 25.7333 2.65333 26.88 1.72C28.0267 0.786664 29.1067 0.319997 30.12 0.319997C31.2667 0.319997 32.2 0.946665 32.92 2.2C33.64 3.42667 34 5.36 34 8C34 10.5067 33.8 12.9467 33.4 15.32C33 17.6933 32.4933 19.9333 31.88 22.04C31.2933 24.1467 30.68 26.0667 30.04 27.8C29.4267 29.5067 28.8933 30.9733 28.44 32.2C28.1467 32.9467 27.84 33.48 27.52 33.8C27.2 34.12 26.8133 34.28 26.36 34.28ZM46.8772 44.28C45.5439 44.28 44.3172 44.1867 43.1972 44C42.1039 43.84 41.0239 43.5733 39.9572 43.2C38.8905 42.8533 37.7305 42.4 36.4772 41.84C36.1039 41.6533 35.7705 41.4267 35.4772 41.16C35.1839 40.92 35.0372 40.64 35.0372 40.32C35.0372 39.92 35.2905 39.4933 35.7972 39.04C36.2772 38.6133 36.7305 38.4 37.1572 38.4C37.6105 38.4 38.1705 38.56 38.8372 38.88C39.5305 39.2 40.3305 39.5733 41.2372 40C42.1439 40.4533 43.1439 40.84 44.2372 41.16C45.3572 41.48 46.5572 41.64 47.8372 41.64C49.2239 41.64 50.5305 41.0667 51.7572 39.92C52.9839 38.7733 53.9839 37.12 54.7572 34.96C55.5305 32.8267 55.9172 30.2533 55.9172 27.24C55.9172 26.3333 55.8905 25.3333 55.8372 24.24C55.8105 23.12 55.7572 21.9467 55.6772 20.72C55.0372 22.1067 54.3172 23.48 53.5172 24.84C52.7439 26.2 51.9305 27.4267 51.0772 28.52C50.2505 29.6133 49.3839 30.4933 48.4772 31.16C47.5972 31.8 46.7039 32.12 45.7972 32.12C44.6505 32.12 43.8239 31.8267 43.3172 31.24C42.8105 30.6533 42.5572 29.7467 42.5572 28.52C42.5572 27.24 42.6505 25.8533 42.8372 24.36C43.0239 22.8667 43.2639 21.36 43.5572 19.84C43.8772 18.2933 44.2505 16.8267 44.6772 15.44C45.1039 14.0533 45.5572 12.8533 46.0372 11.84C46.3039 11.3067 46.7039 11.04 47.2372 11.04C47.6105 11.04 47.9705 11.24 48.3172 11.64C48.6905 12.0133 48.8772 12.5067 48.8772 13.12C48.8772 13.6 48.7705 14.28 48.5572 15.16C48.3439 16.04 48.0772 17.04 47.7572 18.16C47.4372 19.28 47.1172 20.4533 46.7972 21.68C46.4772 22.88 46.2105 24.0667 45.9972 25.24C45.7839 26.3867 45.6772 27.44 45.6772 28.4C45.6772 28.8 45.9439 29 46.4772 29C46.7705 29 47.1839 28.7333 47.7172 28.2C48.2772 27.64 48.8905 26.92 49.5572 26.04C50.2505 25.1333 50.9439 24.1467 51.6372 23.08C52.3572 21.9867 53.0505 20.9067 53.7172 19.84C54.3839 18.7467 54.9572 17.7467 55.4372 16.84C55.4105 16.6267 55.3972 16.4267 55.3972 16.24C55.3972 16.0533 55.3972 15.88 55.3972 15.72C55.3972 14.4133 55.5305 13.6 55.7972 13.28C56.0905 12.9333 56.4639 12.76 56.9172 12.76C57.6905 12.76 58.2372 12.9333 58.5572 13.28C58.8772 13.6267 59.0372 14.2267 59.0372 15.08C59.0372 15.4 58.9972 15.7467 58.9172 16.12C58.8372 16.4667 58.7039 16.9733 58.5172 17.64C58.7305 19.7467 58.9039 21.64 59.0372 23.32C59.1972 25 59.2772 26.6933 59.2772 28.4C59.2772 31.6267 58.7572 34.4267 57.7172 36.8C56.7039 39.1733 55.2639 41.0133 53.3972 42.32C51.5572 43.6267 49.3839 44.28 46.8772 44.28ZM5.4 88.56C5.02667 88.56 4.68 88.4533 4.36 88.24C4.06667 88.0267 3.84 87.6 3.68 86.96C3.52 86.2933 3.44 85.32 3.44 84.04C3.44 81.3733 3.69333 78.7333 4.2 76.12C4.70667 73.5067 5.42667 71.0533 6.36 68.76C7.29333 66.44 8.4 64.4 9.68 62.64C10.9867 60.8533 12.4267 59.4533 14 58.44C15.6 57.4267 17.2933 56.92 19.08 56.92C21.0267 56.92 22.56 57.52 23.68 58.72C24.8 59.8933 25.36 61.5733 25.36 63.76C25.36 65.7867 24.7867 67.4667 23.64 68.8C22.52 70.1333 20.96 70.8 18.96 70.8C18.6133 70.8 18.24 70.7733 17.84 70.72C17.44 70.64 17.0267 70.5333 16.6 70.4C18.2267 73.12 19.8533 75.48 21.48 77.48C23.1067 79.48 24.76 81.28 26.44 82.88C28.1467 84.4533 29.88 85.9733 31.64 87.44C31.9067 87.68 32.1067 87.92 32.24 88.16C32.3733 88.3733 32.44 88.6267 32.44 88.92C32.44 89.3733 32.3333 89.7067 32.12 89.92C31.9333 90.1333 31.5333 90.24 30.92 90.24C30.2533 90.24 29.4267 89.9467 28.44 89.36C27.48 88.7733 26.4267 87.9733 25.28 86.96C24.1333 85.9467 22.9733 84.8 21.8 83.52C20.6267 82.24 19.4933 80.9067 18.4 79.52C17.3333 78.1067 16.3733 76.7333 15.52 75.4C14.6667 74.04 13.9867 72.7867 13.48 71.64C13 70.4933 12.76 69.52 12.76 68.72C12.76 68.1867 12.8933 67.7733 13.16 67.48C13.4267 67.16 13.7867 67 14.24 67C14.8267 67 15.36 67.08 15.84 67.24C16.3467 67.4 16.88 67.48 17.44 67.48C18.9067 67.48 20.0667 67.1067 20.92 66.36C21.8 65.5867 22.24 64.32 22.24 62.56C22.24 61.0133 21.2 60.24 19.12 60.24C17.68 60.24 16.2933 60.8133 14.96 61.96C13.6267 63.08 12.4 64.6933 11.28 66.8C10.1867 68.9067 9.28 71.44 8.56 74.4C7.84 77.3333 7.37333 80.6133 7.16 84.24C7.10667 85.4933 6.98667 86.4267 6.8 87.04C6.64 87.6533 6.44 88.0667 6.2 88.28C5.98667 88.4667 5.72 88.56 5.4 88.56ZM53.7003 71.76C53.7003 72.6133 53.4336 73.4533 52.9003 74.28C52.367 75.08 51.6603 75.8533 50.7803 76.6C49.9003 77.32 48.927 78 47.8603 78.64C46.7936 79.28 45.727 79.84 44.6603 80.32C43.5936 80.8 42.6203 81.1867 41.7403 81.48C41.527 82.52 41.4203 83.44 41.4203 84.24C41.4203 84.7467 41.5403 85.1067 41.7803 85.32C42.0203 85.5333 42.3936 85.64 42.9003 85.64C44.0203 85.64 45.207 85.44 46.4603 85.04C47.7136 84.64 48.9936 84.12 50.3003 83.48C51.607 82.84 52.8603 82.16 54.0603 81.44C55.2603 80.72 56.3536 80.04 57.3403 79.4C58.3536 78.76 59.1936 78.24 59.8603 77.84C60.527 77.44 60.967 77.24 61.1803 77.24C61.5003 77.24 61.7403 77.3467 61.9003 77.56C62.087 77.7467 62.1803 77.9733 62.1803 78.24C62.1803 78.4533 61.847 78.8667 61.1803 79.48C60.5403 80.0933 59.6736 80.8133 58.5803 81.64C57.487 82.44 56.2603 83.2667 54.9003 84.12C53.5403 84.9733 52.127 85.7733 50.6603 86.52C49.2203 87.2667 47.8203 87.8667 46.4603 88.32C45.127 88.7733 43.927 89 42.8603 89C41.4736 89 40.3936 88.48 39.6203 87.44C38.847 86.4 38.4603 84.7867 38.4603 82.6C38.4603 81.1333 38.647 79.6533 39.0203 78.16C39.4203 76.6667 39.9536 75.24 40.6203 73.88C41.3136 72.4933 42.0736 71.2667 42.9003 70.2C43.7536 69.1067 44.647 68.2533 45.5803 67.64C46.5136 67 47.4203 66.68 48.3003 66.68C49.9803 66.68 51.3003 67.1467 52.2603 68.08C53.2203 69.0133 53.7003 70.24 53.7003 71.76ZM42.5803 78.4C43.407 77.8933 44.2603 77.36 45.1403 76.8C46.0203 76.24 46.8336 75.6667 47.5803 75.08C48.327 74.4933 48.927 73.88 49.3803 73.24C49.8603 72.5733 50.1003 71.8933 50.1003 71.2C50.1003 70.2133 49.567 69.72 48.5003 69.72C47.8336 69.72 47.127 70.1467 46.3803 71C45.6603 71.8267 44.967 72.9067 44.3003 74.24C43.6336 75.5733 43.0603 76.96 42.5803 78.4ZM64.5538 88C64.1538 88 63.7538 87.7067 63.3538 87.12C62.9804 86.5333 62.7004 85.7067 62.5138 84.64C62.3271 83.52 62.1538 82.24 61.9938 80.8C61.8338 79.36 61.7004 77.9467 61.5938 76.56C61.4871 75.1733 61.4071 73.9467 61.3538 72.88C61.3004 71.8133 61.2738 71.0933 61.2738 70.72C61.2738 69.3333 61.4871 68.3067 61.9138 67.64C62.3671 66.9467 62.9404 66.6 63.6338 66.6C64.1138 66.6 64.4604 66.7333 64.6738 67C64.8871 67.24 64.9938 67.8 64.9938 68.68C64.9938 69.2667 65.0071 70.0267 65.0338 70.96C65.0604 71.8933 65.1004 72.9067 65.1538 74C65.2071 75.3067 65.2604 76.6933 65.3138 78.16C65.3671 79.6 65.4071 81.0267 65.4338 82.44C66.0738 81.3733 66.8071 80.1867 67.6338 78.88C68.4871 77.5733 69.3538 76.24 70.2338 74.88C71.1138 73.4933 71.9671 72.1733 72.7938 70.92C73.6204 69.6667 74.3538 68.5733 74.9938 67.64C75.6338 66.7067 76.1271 66.0267 76.4738 65.6C76.9271 65.0667 77.3404 64.6933 77.7137 64.48C78.1138 64.2667 78.4604 64.16 78.7538 64.16C79.1538 64.16 79.4738 64.3067 79.7138 64.6C79.9804 64.8933 80.1137 65.3067 80.1137 65.84C80.1137 66.16 80.0471 66.52 79.9138 66.92C79.8071 67.2933 79.6071 67.68 79.3138 68.08C78.5938 69.1733 77.7271 70.4533 76.7138 71.92C75.7004 73.3867 74.6471 74.9067 73.5538 76.48C72.4604 78.0533 71.3938 79.5867 70.3538 81.08C69.3138 82.5467 68.4071 83.84 67.6338 84.96C66.2738 86.9867 65.2471 88 64.5538 88ZM83.3663 89.2C82.8596 89.2 82.4063 89.0133 82.0063 88.64C81.6063 88.24 81.4063 87.6267 81.4063 86.8C81.4063 86.2133 81.4863 85.4 81.6463 84.36C81.8063 83.2933 82.0196 82.1333 82.2863 80.88C82.5529 79.6267 82.8329 78.3867 83.1263 77.16C83.4463 75.9067 83.7663 74.7867 84.0863 73.8C84.4063 72.8133 84.6863 72.08 84.9263 71.6C85.1396 71.2267 85.3396 70.9867 85.5263 70.88C85.7396 70.7733 85.9396 70.72 86.1263 70.72C86.4996 70.72 86.8196 70.84 87.0863 71.08C87.3796 71.32 87.5263 71.7867 87.5263 72.48C87.5263 72.88 87.4463 73.5467 87.2863 74.48C87.1529 75.3867 86.9663 76.4533 86.7263 77.68C86.5129 78.88 86.2729 80.12 86.0063 81.4C85.7663 82.6533 85.5263 83.8533 85.2862 85C85.0463 86.1467 84.8596 87.1067 84.7263 87.88C84.6196 88.3067 84.4329 88.64 84.1663 88.88C83.9263 89.0933 83.6596 89.2 83.3663 89.2ZM87.2863 67.08C86.6729 67.08 86.0863 66.8933 85.5263 66.52C84.9929 66.1467 84.7263 65.5467 84.7263 64.72C84.7263 64.0267 84.8863 63.4667 85.2063 63.04C85.5529 62.6133 85.9529 62.3067 86.4063 62.12C86.8863 61.9067 87.2996 61.8 87.6463 61.8C87.9929 61.8 88.3796 61.88 88.8063 62.04C89.2596 62.1733 89.6463 62.44 89.9662 62.84C90.2863 63.2133 90.4463 63.7733 90.4463 64.52C90.4463 65.0267 90.2729 65.48 89.9263 65.88C89.5796 66.2533 89.1529 66.5467 88.6463 66.76C88.1663 66.9733 87.7129 67.08 87.2863 67.08ZM108.818 71.76C108.818 72.6133 108.551 73.4533 108.018 74.28C107.484 75.08 106.778 75.8533 105.898 76.6C105.018 77.32 104.044 78 102.978 78.64C101.911 79.28 100.844 79.84 99.7775 80.32C98.7108 80.8 97.7375 81.1867 96.8575 81.48C96.6442 82.52 96.5375 83.44 96.5375 84.24C96.5375 84.7467 96.6575 85.1067 96.8975 85.32C97.1375 85.5333 97.5108 85.64 98.0175 85.64C99.1375 85.64 100.324 85.44 101.578 85.04C102.831 84.64 104.111 84.12 105.418 83.48C106.724 82.84 107.978 82.16 109.178 81.44C110.378 80.72 111.471 80.04 112.457 79.4C113.471 78.76 114.311 78.24 114.978 77.84C115.644 77.44 116.084 77.24 116.298 77.24C116.618 77.24 116.858 77.3467 117.018 77.56C117.204 77.7467 117.298 77.9733 117.298 78.24C117.298 78.4533 116.964 78.8667 116.298 79.48C115.658 80.0933 114.791 80.8133 113.698 81.64C112.604 82.44 111.378 83.2667 110.018 84.12C108.658 84.9733 107.244 85.7733 105.778 86.52C104.338 87.2667 102.938 87.8667 101.578 88.32C100.244 88.7733 99.0442 89 97.9775 89C96.5908 89 95.5108 88.48 94.7375 87.44C93.9642 86.4 93.5775 84.7867 93.5775 82.6C93.5775 81.1333 93.7642 79.6533 94.1375 78.16C94.5375 76.6667 95.0708 75.24 95.7375 73.88C96.4308 72.4933 97.1908 71.2667 98.0175 70.2C98.8708 69.1067 99.7642 68.2533 100.697 67.64C101.631 67 102.538 66.68 103.418 66.68C105.098 66.68 106.418 67.1467 107.378 68.08C108.338 69.0133 108.818 70.24 108.818 71.76ZM97.6975 78.4C98.5242 77.8933 99.3775 77.36 100.258 76.8C101.138 76.24 101.951 75.6667 102.698 75.08C103.444 74.4933 104.044 73.88 104.498 73.24C104.978 72.5733 105.218 71.8933 105.218 71.2C105.218 70.2133 104.684 69.72 103.618 69.72C102.951 69.72 102.244 70.1467 101.498 71C100.778 71.8267 100.084 72.9067 99.4175 74.24C98.7508 75.5733 98.1775 76.96 97.6975 78.4ZM119.537 90.16C118.604 90.16 117.83 89.7467 117.217 88.92C116.63 88.0667 116.337 86.56 116.337 84.4C116.337 82.1333 116.377 79.9333 116.457 77.8C116.537 75.64 116.684 73.7067 116.897 72C117.137 70.2933 117.457 68.9333 117.857 67.92C118.257 66.9067 118.777 66.4 119.417 66.4C119.87 66.4 120.27 66.6533 120.617 67.16C120.964 67.64 121.137 68.28 121.137 69.08C121.137 69.9067 121.057 71.0133 120.897 72.4C120.737 73.7867 120.537 75.28 120.297 76.88C120.084 78.4533 119.897 79.9867 119.737 81.48C119.577 82.9467 119.497 84.1867 119.497 85.2C119.497 85.6267 119.51 85.9733 119.537 86.24C119.59 86.48 119.67 86.6 119.777 86.6C120.177 86.6 120.604 86.2533 121.057 85.56C121.537 84.84 122.044 83.9067 122.577 82.76C123.11 81.5867 123.67 80.3067 124.257 78.92C124.844 77.5067 125.444 76.1067 126.057 74.72C126.67 73.3333 127.297 72.0667 127.937 70.92C128.577 69.7467 129.217 68.8133 129.857 68.12C130.497 67.4 131.124 67.04 131.737 67.04C132.457 67.04 133.124 67.3867 133.737 68.08C134.377 68.7467 134.697 69.7067 134.697 70.96C134.697 71.3333 134.644 71.9867 134.537 72.92C134.43 73.8267 134.297 74.8667 134.137 76.04C133.977 77.2133 133.817 78.3867 133.657 79.56C133.497 80.7067 133.364 81.7333 133.257 82.64C133.15 83.52 133.097 84.1467 133.097 84.52C133.097 85.9067 133.23 86.6 133.497 86.6C134.244 86.6 135.03 86.1333 135.857 85.2C136.71 84.24 137.564 83.0133 138.417 81.52C139.297 80 140.164 78.36 141.017 76.6C141.897 74.8133 142.737 73.1067 143.537 71.48C143.91 70.6267 144.217 70.0533 144.457 69.76C144.724 69.44 144.99 69.28 145.257 69.28C145.63 69.28 145.977 69.48 146.297 69.88C146.644 70.28 146.817 70.8267 146.817 71.52C146.817 71.76 146.804 72 146.777 72.24C146.75 72.4533 146.684 72.6933 146.577 72.96C145.67 75.36 144.697 77.5867 143.657 79.64C142.617 81.6667 141.55 83.44 140.457 84.96C139.39 86.4533 138.337 87.6267 137.297 88.48C136.257 89.3067 135.297 89.72 134.417 89.72C132.897 89.72 131.71 89.2933 130.857 88.44C130.03 87.56 129.617 86.3867 129.617 84.92C129.617 84.3067 129.657 83.5067 129.737 82.52C129.844 81.5333 129.964 80.4667 130.097 79.32C130.257 78.1733 130.417 77.0667 130.577 76C130.737 74.9333 130.87 74 130.977 73.2C131.11 72.4 131.19 71.8533 131.217 71.56C131.244 71.1867 131.204 71 131.097 71C130.99 71 130.777 71.3467 130.457 72.04C130.164 72.7067 129.804 73.56 129.377 74.6C128.977 75.6133 128.55 76.6667 128.097 77.76C127.59 78.96 127.004 80.28 126.337 81.72C125.697 83.1333 125.004 84.48 124.257 85.76C123.537 87.04 122.777 88.0933 121.977 88.92C121.177 89.7467 120.364 90.16 119.537 90.16ZM156.347 89.88C155.761 89.88 155.307 89.7067 154.987 89.36C154.694 89.04 154.547 88.6667 154.547 88.24C154.547 87.8667 154.707 87.52 155.027 87.2C155.374 86.8533 155.841 86.5467 156.427 86.28C157.494 85.72 158.494 85.16 159.427 84.6C160.387 84.04 161.161 83.44 161.747 82.8C162.334 82.16 162.627 81.48 162.627 80.76C162.627 80.1467 162.427 79.68 162.027 79.36C161.627 79.0133 161.081 78.84 160.387 78.84C159.987 78.84 159.427 78.92 158.707 79.08C157.987 79.2133 157.201 79.3733 156.347 79.56C155.521 79.72 154.707 79.88 153.907 80.04C153.107 80.1733 152.427 80.24 151.867 80.24C150.854 80.24 150.094 80 149.587 79.52C149.081 79.0133 148.827 78.3333 148.827 77.48C148.827 77.0533 149.081 76.4133 149.587 75.56C150.094 74.7067 150.761 73.76 151.587 72.72C152.441 71.6533 153.374 70.5867 154.387 69.52C155.401 68.4533 156.427 67.4667 157.467 66.56C158.534 65.6533 159.521 64.92 160.427 64.36C161.361 63.8 162.134 63.52 162.747 63.52C163.361 63.52 163.827 63.72 164.147 64.12C164.467 64.52 164.627 65.0267 164.627 65.64C164.627 66.12 164.547 66.5333 164.387 66.88C164.227 67.2 163.894 67.4533 163.387 67.64C162.907 67.8267 162.161 67.9333 161.147 67.96C160.107 68.7867 159.001 69.7333 157.827 70.8C156.681 71.84 155.627 72.92 154.667 74.04C153.734 75.1333 153.054 76.1867 152.627 77.2C153.507 76.9067 154.574 76.6533 155.827 76.44C157.107 76.2 158.401 76.08 159.707 76.08C161.761 76.08 163.281 76.5467 164.267 77.48C165.281 78.3867 165.787 79.5867 165.787 81.08C165.787 82.04 165.481 83.04 164.867 84.08C164.281 85.0933 163.507 86.04 162.547 86.92C161.587 87.8 160.561 88.5067 159.467 89.04C158.374 89.6 157.334 89.88 156.347 89.88Z" fill="white"/>
<path d="M111.36 34.28C110.88 34.28 110.467 34.0667 110.12 33.64C109.8 33.2133 109.64 32.4667 109.64 31.4C109.64 30.7867 109.76 30.0667 110 29.24C110.533 27.56 111.08 25.76 111.64 23.84C112.227 21.92 112.773 19.96 113.28 17.96C113.813 15.96 114.24 14.0267 114.56 12.16C114.88 10.2667 115.04 8.53333 115.04 6.96C115.04 6.42666 115.013 5.90667 114.96 5.4C114.933 4.89333 114.867 4.41333 114.76 3.96C112.067 6.52 109.573 10 107.28 14.4C105.013 18.7733 102.947 23.8667 101.08 29.68C100.76 30.56 100.36 31.1733 99.88 31.52C99.4 31.8667 98.9467 32.04 98.52 32.04C98.1467 32.04 97.7867 31.8933 97.44 31.6C97.0933 31.28 96.92 30.8 96.92 30.16C96.92 29.7333 97.0267 29.1333 97.24 28.36C97.4533 27.56 97.8267 26.8267 98.36 26.16C98.6533 24.4 98.8933 22.5333 99.08 20.56C99.2933 18.5867 99.4 16.76 99.4 15.08C99.4 14.3067 99.36 13.5867 99.28 12.92C99.2267 12.2267 99.1333 11.6267 99 11.12C97.6133 12.5867 96.32 14.4267 95.12 16.64C93.9467 18.8267 92.9067 21.1867 92 23.72C91.0933 26.2267 90.3333 28.68 89.72 31.08C89.24 32.8133 88.4667 33.68 87.4 33.68C86.9733 33.68 86.6133 33.4533 86.32 33C86.0533 32.5467 85.92 31.8667 85.92 30.96C85.92 30.08 86.1333 28.8933 86.56 27.4C86.9867 25.9067 87.56 24.2667 88.28 22.48C89.0267 20.6933 89.8533 18.92 90.76 17.16C91.6933 15.3733 92.6533 13.7467 93.64 12.28C94.6533 10.7867 95.64 9.58667 96.6 8.68C97.56 7.77333 98.4267 7.32 99.2 7.32C99.7067 7.32 100.16 7.41333 100.56 7.6C100.96 7.78666 101.307 8.17333 101.6 8.76C101.893 9.32 102.107 10.1867 102.24 11.36C102.4 12.5067 102.48 14.04 102.48 15.96C102.48 16.3067 102.48 16.7067 102.48 17.16C103.253 15.0267 104.147 12.96 105.16 10.96C106.2 8.93333 107.293 7.12 108.44 5.52C109.587 3.92 110.733 2.65333 111.88 1.72C113.027 0.786664 114.107 0.319997 115.12 0.319997C116.267 0.319997 117.2 0.946665 117.92 2.2C118.64 3.42667 119 5.36 119 8C119 10.5067 118.8 12.9467 118.4 15.32C118 17.6933 117.493 19.9333 116.88 22.04C116.293 24.1467 115.68 26.0667 115.04 27.8C114.427 29.5067 113.893 30.9733 113.44 32.2C113.147 32.9467 112.84 33.48 112.52 33.8C112.2 34.12 111.813 34.28 111.36 34.28ZM131.782 34.4C130.209 34.4 128.969 33.8 128.062 32.6C127.156 31.4 126.702 29.84 126.702 27.92C126.702 27.2267 126.796 26.4933 126.982 25.72C127.196 24.92 127.462 24.2 127.782 23.56C127.596 23.3733 127.449 23.12 127.342 22.8C127.236 22.4533 127.182 22.0267 127.182 21.52C127.182 19.9467 127.449 18.5067 127.982 17.2C128.516 15.8933 129.222 14.76 130.102 13.8C130.982 12.8133 131.956 12.0533 133.022 11.52C134.116 10.9867 135.222 10.72 136.342 10.72C138.182 10.72 139.676 11.3867 140.822 12.72C141.969 14.0267 142.542 16.0267 142.542 18.72C142.542 20.1333 142.329 21.5733 141.902 23.04C141.502 24.5067 140.942 25.92 140.222 27.28C139.529 28.64 138.716 29.8533 137.782 30.92C136.876 31.9867 135.902 32.84 134.862 33.48C133.849 34.0933 132.822 34.4 131.782 34.4ZM130.422 22.2C130.582 22.4133 130.662 22.6933 130.662 23.04C130.662 23.44 130.582 23.84 130.422 24.24C130.289 24.64 130.142 25.1867 129.982 25.88C129.822 26.5733 129.742 27.56 129.742 28.84C129.742 30.12 130.249 30.76 131.262 30.76C132.382 30.76 133.422 30.32 134.382 29.44C135.342 28.5333 136.196 27.3733 136.942 25.96C137.689 24.5467 138.262 23.04 138.662 21.44C139.089 19.8133 139.302 18.28 139.302 16.84C139.302 15.9067 139.129 15.2533 138.782 14.88C138.436 14.48 137.809 14.28 136.902 14.28C135.969 14.28 134.996 14.6 133.982 15.24C132.996 15.8533 132.169 16.6933 131.502 17.76C130.836 18.8267 130.502 20.0267 130.502 21.36C130.502 21.6533 130.476 21.9333 130.422 22.2ZM151.819 33C151.419 33 151.019 32.7067 150.619 32.12C150.246 31.5333 149.966 30.7067 149.779 29.64C149.593 28.52 149.419 27.24 149.259 25.8C149.099 24.36 148.966 22.9467 148.859 21.56C148.753 20.1733 148.673 18.9467 148.619 17.88C148.566 16.8133 148.539 16.0933 148.539 15.72C148.539 14.3333 148.753 13.3067 149.179 12.64C149.633 11.9467 150.206 11.6 150.899 11.6C151.379 11.6 151.726 11.7333 151.939 12C152.153 12.24 152.259 12.8 152.259 13.68C152.259 14.2667 152.273 15.0267 152.299 15.96C152.326 16.8933 152.366 17.9067 152.419 19C152.473 20.3067 152.526 21.6933 152.579 23.16C152.633 24.6 152.673 26.0267 152.699 27.44C153.339 26.3733 154.073 25.1867 154.899 23.88C155.753 22.5733 156.619 21.24 157.499 19.88C158.379 18.4933 159.233 17.1733 160.059 15.92C160.886 14.6667 161.619 13.5733 162.259 12.64C162.899 11.7067 163.393 11.0267 163.739 10.6C164.193 10.0667 164.606 9.69333 164.979 9.48C165.379 9.26666 165.726 9.16 166.019 9.16C166.419 9.16 166.739 9.30667 166.979 9.6C167.246 9.89333 167.379 10.3067 167.379 10.84C167.379 11.16 167.313 11.52 167.179 11.92C167.073 12.2933 166.873 12.68 166.579 13.08C165.859 14.1733 164.993 15.4533 163.979 16.92C162.966 18.3867 161.913 19.9067 160.819 21.48C159.726 23.0533 158.659 24.5867 157.619 26.08C156.579 27.5467 155.673 28.84 154.899 29.96C153.539 31.9867 152.513 33 151.819 33ZM170.632 34.2C170.125 34.2 169.672 34.0133 169.272 33.64C168.872 33.24 168.672 32.6267 168.672 31.8C168.672 31.2133 168.752 30.4 168.912 29.36C169.072 28.2933 169.285 27.1333 169.552 25.88C169.819 24.6267 170.099 23.3867 170.392 22.16C170.712 20.9067 171.032 19.7867 171.352 18.8C171.672 17.8133 171.952 17.08 172.192 16.6C172.405 16.2267 172.605 15.9867 172.792 15.88C173.005 15.7733 173.205 15.72 173.392 15.72C173.765 15.72 174.085 15.84 174.352 16.08C174.645 16.32 174.792 16.7867 174.792 17.48C174.792 17.88 174.712 18.5467 174.552 19.48C174.419 20.3867 174.232 21.4533 173.992 22.68C173.779 23.88 173.539 25.12 173.272 26.4C173.032 27.6533 172.792 28.8533 172.552 30C172.312 31.1467 172.125 32.1067 171.992 32.88C171.885 33.3067 171.699 33.64 171.432 33.88C171.192 34.0933 170.925 34.2 170.632 34.2ZM174.552 12.08C173.939 12.08 173.352 11.8933 172.792 11.52C172.259 11.1467 171.992 10.5467 171.992 9.72C171.992 9.02667 172.152 8.46667 172.472 8.04C172.819 7.61333 173.219 7.30667 173.672 7.12C174.152 6.90667 174.565 6.8 174.912 6.8C175.259 6.8 175.645 6.88 176.072 7.04C176.525 7.17333 176.912 7.44 177.232 7.84C177.552 8.21333 177.712 8.77333 177.712 9.52C177.712 10.0267 177.539 10.48 177.192 10.88C176.845 11.2533 176.419 11.5467 175.912 11.76C175.432 11.9733 174.979 12.08 174.552 12.08ZM196.083 16.76C196.083 17.6133 195.816 18.4533 195.283 19.28C194.75 20.08 194.043 20.8533 193.163 21.6C192.283 22.32 191.31 23 190.243 23.64C189.176 24.28 188.11 24.84 187.043 25.32C185.976 25.8 185.003 26.1867 184.123 26.48C183.91 27.52 183.803 28.44 183.803 29.24C183.803 29.7467 183.923 30.1067 184.163 30.32C184.403 30.5333 184.776 30.64 185.283 30.64C186.403 30.64 187.59 30.44 188.843 30.04C190.096 29.64 191.376 29.12 192.683 28.48C193.99 27.84 195.243 27.16 196.443 26.44C197.643 25.72 198.736 25.04 199.723 24.4C200.736 23.76 201.576 23.24 202.243 22.84C202.91 22.44 203.35 22.24 203.563 22.24C203.883 22.24 204.123 22.3467 204.283 22.56C204.47 22.7467 204.563 22.9733 204.563 23.24C204.563 23.4533 204.23 23.8667 203.563 24.48C202.923 25.0933 202.056 25.8133 200.963 26.64C199.87 27.44 198.643 28.2667 197.283 29.12C195.923 29.9733 194.51 30.7733 193.043 31.52C191.603 32.2667 190.203 32.8667 188.843 33.32C187.51 33.7733 186.31 34 185.243 34C183.856 34 182.776 33.48 182.003 32.44C181.23 31.4 180.843 29.7867 180.843 27.6C180.843 26.1333 181.03 24.6533 181.403 23.16C181.803 21.6667 182.336 20.24 183.003 18.88C183.696 17.4933 184.456 16.2667 185.283 15.2C186.136 14.1067 187.03 13.2533 187.963 12.64C188.896 12 189.803 11.68 190.683 11.68C192.363 11.68 193.683 12.1467 194.643 13.08C195.603 14.0133 196.083 15.24 196.083 16.76ZM184.963 23.4C185.79 22.8933 186.643 22.36 187.523 21.8C188.403 21.24 189.216 20.6667 189.963 20.08C190.71 19.4933 191.31 18.88 191.763 18.24C192.243 17.5733 192.483 16.8933 192.483 16.2C192.483 15.2133 191.95 14.72 190.883 14.72C190.216 14.72 189.51 15.1467 188.763 16C188.043 16.8267 187.35 17.9067 186.683 19.24C186.016 20.5733 185.443 21.96 184.963 23.4Z" fill="#E91E21"/>
</svg>
